<svg data-v-423bf9ae="" xmlns="http://www.w3.org/2000/svg" viewBox="0 0 563 112" class="iconLeft"><!----><!----><!----><g data-v-423bf9ae="" id="59449c3e-fc90-45da-9266-97592e76b95a" fill="black" transform="matrix(5.623242696436797,0,0,5.623242696436797,93.40632374516636,25.5554780960083)"><path d="M5.03 9.20C4.45 9.55 4.03 9.69 3.60 9.69C2.88 9.69 2.79 9.38 2.79 8.36L2.79 4.24L5.03 4.24L5.03 3.47L2.79 3.47L2.79 1.79L2.09 1.79L1.60 3.33L0.42 3.75L0.42 4.24L1.53 4.24L1.53 8.69C1.53 9.83 1.88 10.67 3.11 10.67C3.95 10.67 4.86 10.21 5.29 9.53ZM8.27 0L5.78 0.34L5.85 0.91L7.01 1.13L7.01 9.66L5.78 10.08L5.78 10.50L9.18 10.50L9.32 9.83L8.27 9.63L8.27 4.96C8.64 4.52 9.48 4.24 10.22 4.24C11.12 4.24 11.56 4.55 11.56 5.95L11.56 9.66L10.49 10.08L10.49 10.50L13.80 10.50L13.94 9.87L12.82 9.63L12.81 5.67C12.81 3.88 12.04 3.09 10.70 3.09C9.93 3.09 8.90 3.50 8.27 4.27ZM21.08 6.75C21.08 5.00 20.58 3.11 18.09 3.11C16.48 3.11 14.71 4.35 14.71 6.83C14.71 9.25 16.28 10.63 18.13 10.63C19.07 10.63 20.06 10.28 20.97 9.56L20.66 9.03C19.95 9.49 19.26 9.72 18.61 9.72C17.19 9.72 16.11 8.60 16.11 6.75ZM16.16 5.99C16.20 4.62 17.16 3.86 18.05 3.86C18.89 3.86 19.68 4.52 19.68 5.99ZM34.45 1.19L34.45 0.70L31.74 0.70L28.29 7.70L24.77 0.70L22.29 0.70L22.15 1.33L23.46 1.60L23.46 9.60L22.13 10.01L22.13 10.50L25.49 10.50L25.63 9.87L24.30 9.60L24.30 2.74L27.78 9.60L28.27 9.60L31.72 2.56L31.72 9.62L30.41 10.01L30.41 10.50L34.31 10.50L34.45 9.87L33.12 9.60L33.12 1.60ZM42.04 10.50L42.18 9.86L41.17 9.62L41.17 5.32C41.17 3.64 40.01 3.09 38.56 3.09C37.60 3.09 36.78 3.39 36.05 3.71L36.05 5.53L36.78 5.66L37.17 4.06C37.60 3.91 38.05 3.86 38.49 3.86C39.27 3.86 39.91 4.26 39.91 5.31L39.91 6.45C38.91 6.57 38.11 6.72 37.20 6.96C35.98 7.28 35.57 7.84 35.57 8.78C35.57 9.95 36.44 10.61 37.44 10.61C38.25 10.61 39.35 10.04 39.91 9.37L39.91 10.50ZM36.97 8.67C36.97 8.09 37.24 7.59 38.12 7.35C38.72 7.18 39.31 7.11 39.91 7.04L39.91 8.64C39.58 9.13 38.70 9.73 38.02 9.73C37.46 9.73 36.97 9.55 36.97 8.67ZM48.27 5.75L48.97 5.61L48.97 3.75C48.26 3.30 47.52 3.09 46.75 3.09C44.84 3.09 43.02 4.47 43.02 6.86C43.02 9.28 44.63 10.65 46.54 10.65C47.49 10.65 48.41 10.29 49.15 9.58L48.85 9.04C48.27 9.48 47.43 9.73 46.80 9.73C45.16 9.73 44.42 8.26 44.42 6.76C44.42 5.12 45.39 3.86 46.79 3.86C47.11 3.86 47.47 3.95 47.88 4.10ZM52.21 0L49.71 0.34L49.78 0.91L50.95 1.13L50.95 9.66L49.71 10.08L49.71 10.50L53.12 10.50L53.26 9.83L52.21 9.63L52.21 4.96C52.57 4.52 53.41 4.24 54.15 4.24C55.05 4.24 55.50 4.55 55.50 5.95L55.50 9.66L54.42 10.08L54.42 10.50L57.74 10.50L57.88 9.87L56.76 9.63L56.74 5.67C56.74 3.88 55.97 3.09 54.63 3.09C53.86 3.09 52.84 3.50 52.21 4.27ZM65.18 10.50L65.32 9.86L64.32 9.62L64.32 5.32C64.32 3.64 63.15 3.09 61.70 3.09C60.75 3.09 59.92 3.39 59.19 3.71L59.19 5.53L59.92 5.66L60.31 4.06C60.75 3.91 61.19 3.86 61.63 3.86C62.41 3.86 63.06 4.26 63.06 5.31L63.06 6.45C62.05 6.57 61.25 6.72 60.34 6.96C59.12 7.28 58.72 7.84 58.72 8.78C58.72 9.95 59.58 10.61 60.58 10.61C61.39 10.61 62.50 10.04 63.06 9.37L63.06 10.50ZM60.12 8.67C60.12 8.09 60.38 7.59 61.26 7.35C61.87 7.18 62.45 7.11 63.06 7.04L63.06 8.64C62.72 9.13 61.84 9.73 61.17 9.73C60.61 9.73 60.12 9.55 60.12 8.67ZM71.67 3.32C71.37 3.19 71.06 3.12 70.74 3.12C69.92 3.12 69.20 3.60 68.57 4.27L68.57 3.12L66.09 3.46L66.16 4.07L67.33 4.30L67.33 9.66L66.11 10.08L66.11 10.50L69.72 10.50L69.86 9.83L68.57 9.63L68.57 4.96C68.95 4.52 69.68 4.24 70.28 4.24C70.35 4.24 70.49 4.24 70.56 4.26L70.94 5.32L71.67 5.19ZM74.79 3.12L72.32 3.46L72.39 4.03L73.53 4.24L73.53 9.66L72.30 10.08L72.30 10.50L75.70 10.50L75.84 9.83L74.79 9.63ZM73.07 1.08C73.28 1.47 73.61 1.81 74.00 2.02C74.41 1.78 74.75 1.46 74.98 1.05C74.77 0.64 74.45 0.32 74.05 0.11C73.63 0.35 73.30 0.67 73.07 1.08ZM83.29 10.50L83.43 9.86L82.42 9.62L82.42 5.32C82.42 3.64 81.26 3.09 79.80 3.09C78.85 3.09 78.02 3.39 77.29 3.71L77.29 5.53L78.02 5.66L78.41 4.06C78.85 3.91 79.30 3.86 79.73 3.86C80.51 3.86 81.16 4.26 81.16 5.31L81.16 6.45C80.15 6.57 79.35 6.72 78.44 6.96C77.22 7.28 76.82 7.84 76.82 8.78C76.82 9.95 77.69 10.61 78.68 10.61C79.49 10.61 80.60 10.04 81.16 9.37L81.16 10.50ZM78.22 8.67C78.22 8.09 78.48 7.59 79.37 7.35C79.97 7.18 80.56 7.11 81.16 7.04L81.16 8.64C80.82 9.13 79.94 9.73 79.27 9.73C78.71 9.73 78.22 9.55 78.22 8.67Z"></path></g><!----><g data-v-423bf9ae="" id="f18e4936-f03d-46e2-beb2-57ddd4332b41" transform="matrix(1.111110348171658,0,0,1.111110348171658,0.11600107470827936,0.44452073836356476)" stroke="none" fill="black"><g><path d="M29.421 59.16c-4.724 26.075 5.842 36.644 12.026 40.709.978.643 4.746-1.233 4.838-2.353-15.332-12.87-16.377-21.585-16.864-38.356zM28.917 57.705c8.686-4.976 11.889-16.434 3.259-23.373C19.153 23.853 23.163 9.51 27.401 0-4.907 15.434-6.854 52.02 12.211 58.81c4.415 1.575 8.546 1.654 12.138.736-4.33-5.444-8.064-13.82-9.208-26.824 3.452 11.31 6.136 18.687 13.776 24.983z"></path><path d="M66.335 32.81c-2.896 6.868-8.432 15.983-20.279 14.306-7.849-1.12-12.27 6.158-10.623 13.133 7.029.917 12.197-1.289 19.799-5.023-7.355 5.766-13.563 7.91-18.526 8.317 1.283 2.32 3.347 4.443 6.324 5.979 12.879 6.642 31.046-12.276 23.305-36.712z"></path></g></g><!----></svg>